<svg width="40" height="64" viewBox="0 0 40 64" fill="none" xmlns="http://www.w3.org/2000/svg">
  <path opacity="0.15" fill-rule="evenodd" clip-rule="evenodd" d="M20 62C31.0457 62 40 53.0457 40 42C40 30.9543 31.0457 22 20 22C8.95431 22 0 30.9543 0 42C0 53.0457 8.95431 62 20 62ZM20 58C12.268 58 6 51.732 6 44C6 36.268 12.268 30 20 30C27.732 30 34 36.268 34 44C34 51.732 27.732 58 20 58Z" fill="url(#paint0_linear)"/>
  <path d="M20 2C8.95431 2 0 10.9543 0 22C0 33.0457 8.95431 42 20 42C31.0457 42 40 33.0457 40 22C40 10.9543 31.0457 2 20 2ZM20 38C12.268 38 6 31.732 6 24C6 16.268 12.268 10 20 10C27.732 10 34 16.268 34 24C34 31.732 27.732 38 20 38Z" fill="url(#paint1_linear)" stroke="url(#paint2_linear)" stroke-width="0.25"/>
  <defs>
    <linearGradient id="paint0_linear" x1="2" y1="2" x2="38" y2="62" gradientUnits="userSpaceOnUse">
      <stop offset="0%" stop-color="#00A1E4"/>
      <stop offset="100%" stop-color="#0073A3"/>
    </linearGradient>
    <linearGradient id="paint1_linear" x1="6" y1="6" x2="34" y2="38" gradientUnits="userSpaceOnUse">
      <stop offset="0%" stop-color="#FFDB6E"/>
      <stop offset="100%" stop-color="#FFBC5E"/>
    </linearGradient>
    <linearGradient id="paint2_linear" x1="10" y1="10" x2="30" y2="30" gradientUnits="userSpaceOnUse">
      <stop offset="0%" stop-color="#FFDB6E"/>
      <stop offset="100%" stop-color="#FFBC5E"/>
    </linearGradient>
  </defs>
</svg>
